<?xml version="1.0" encoding="utf-8"?>
<svg xmlns="http://www.w3.org/2000/svg" viewBox="0 0 100 100" width="500" height="500">
  <path fill="#c7ede6" d="M87.215,56.71C88.35,54.555,89,52.105,89,49.5c0-6.621-4.159-12.257-10.001-14.478 C78.999,35.015,79,35.008,79,35c0-11.598-9.402-21-21-21c-9.784,0-17.981,6.701-20.313,15.757C36.211,29.272,34.638,29,33,29 c-7.692,0-14.023,5.793-14.89,13.252C12.906,43.353,9,47.969,9,53.5C9,59.851,14.149,65,20.5,65c0.177,0,0.352-0.012,0.526-0.022 C21.022,65.153,21,65.324,21,65.5C21,76.822,30.178,86,41.5,86c6.437,0,12.175-2.972,15.934-7.614C59.612,80.611,62.64,82,66,82 c4.65,0,8.674-2.65,10.666-6.518C77.718,75.817,78.837,76,80,76c6.075,0,11-4.925,11-11C91,61.689,89.53,58.727,87.215,56.71z" />
  <path fill="#fff" d="M15.5,51h-10C5.224,51,5,50.776,5,50.5S5.224,50,5.5,50h10c0.276,0,0.5,0.224,0.5,0.5 S15.777,51,15.5,51z M18.5,51h-1c-0.276,0-0.5-0.224-0.5-0.5s0.224-0.5,0.5-0.5h1c0.276,0,0.5,0.224,0.5,0.5S18.777,51,18.5,51z M23.491,53H14.5c-0.276,0-0.5-0.224-0.5-0.5s0.224-0.5,0.5-0.5h8.991c0.276,0,0.5,0.224,0.5,0.5S23.767,53,23.491,53z M12.5,53h-1 c-0.276,0-0.5-0.224-0.5-0.5s0.224-0.5,0.5-0.5h1c0.276,0,0.5,0.224,0.5,0.5S12.777,53,12.5,53z M9.5,53h-2 C7.224,53,7,52.776,7,52.5S7.224,52,7.5,52h2c0.276,0,0.5,0.224,0.5,0.5S9.777,53,9.5,53z M15.5,55h-2c-0.276,0-0.5-0.224-0.5-0.5 s0.224-0.5,0.5-0.5h2c0.276,0,0.5,0.224,0.5,0.5S15.776,55,15.5,55z M18.5,46c-0.177,0-0.823,0-1,0c-0.276,0-0.5,0.224-0.5,0.5 s0.224,0.5,0.5,0.5c0.177,0,0.823,0,1,0c0.276,0,0.5-0.224,0.5-0.5S18.776,46,18.5,46z M18.5,48c-0.177,0-4.823,0-5,0 c-0.276,0-0.5,0.224-0.5,0.5s0.224,0.5,0.5,0.5c0.177,0,4.823,0,5,0c0.276,0,0.5-0.224,0.5-0.5S18.776,48,18.5,48z M23.5,50 c-0.177,0-2.823,0-3,0c-0.276,0-0.5,0.224-0.5,0.5s0.224,0.5,0.5,0.5c0.177,0,2.823,0,3,0c0.276,0,0.5-0.224,0.5-0.5 S23.776,50,23.5,50z" />
  <path fill="#f1bc19" d="M43.362,29.25c-6.17,0-11.172,5.002-11.172,11.172s5.002,11.172,11.172,11.172 s11.172-5.002,11.172-11.172S49.532,29.25,43.362,29.25z" />
  <path fill="#fff" d="M72.5,24h-10c-0.276,0-0.5-0.224-0.5-0.5s0.224-0.5,0.5-0.5h10c0.276,0,0.5,0.224,0.5,0.5 S72.776,24,72.5,24z M76.5,24h-2c-0.276,0-0.5-0.224-0.5-0.5s0.224-0.5,0.5-0.5h2c0.276,0,0.5,0.224,0.5,0.5S76.776,24,76.5,24z M81.5,26h-10c-0.276,0-0.5-0.224-0.5-0.5s0.224-0.5,0.5-0.5h10c0.276,0,0.5,0.224,0.5,0.5S81.777,26,81.5,26z M69.5,26h-1 c-0.276,0-0.5-0.224-0.5-0.5s0.224-0.5,0.5-0.5h1c0.276,0,0.5,0.224,0.5,0.5S69.776,26,69.5,26z M66.47,26H64.5 c-0.276,0-0.5-0.224-0.5-0.5s0.224-0.5,0.5-0.5h1.97c0.276,0,0.5,0.224,0.5,0.5S66.746,26,66.47,26z M75.5,22h-5 c-0.276,0-0.5-0.224-0.5-0.5s0.224-0.5,0.5-0.5h5c0.276,0,0.5,0.224,0.5,0.5S75.777,22,75.5,22z M72.5,28h-2 c-0.276,0-0.5-0.224-0.5-0.5s0.224-0.5,0.5-0.5h2c0.276,0,0.5,0.224,0.5,0.5S72.776,28,72.5,28z" />
  <path fill="#fdfcef" d="M33.5,73.5c0,0,1.567,0,3.5,0s3.5-1.567,3.5-3.5c0-1.781-1.335-3.234-3.055-3.455 C37.473,66.366,37.5,66.187,37.5,66c0-1.933-1.567-3.5-3.5-3.5c-1.032,0-1.95,0.455-2.59,1.165 c-0.384-1.808-1.987-3.165-3.91-3.165c-2.209,0-4,1.791-4,4c0,0.191,0.03,0.374,0.056,0.558C23.128,64.714,22.592,64.5,22,64.5 c-1.228,0-2.245,0.887-2.455,2.055C19.366,66.527,19.187,66.5,19,66.5c-1.933,0-3.5,1.567-3.5,3.5s1.567,3.5,3.5,3.5s7.5,0,7.5,0 V74h7V73.5z" />
  <path fill="#472b29" d="M35.25,69C35.112,69,35,68.888,35,68.75c0-1.223,0.995-2.218,2.218-2.218 c0.034,0.009,0.737-0.001,1.244,0.136c0.133,0.036,0.212,0.173,0.176,0.306c-0.036,0.134-0.173,0.213-0.306,0.176 c-0.444-0.12-1.1-0.12-1.113-0.118c-0.948,0-1.719,0.771-1.719,1.718C35.5,68.888,35.388,69,35.25,69z M28.5,73 c-0.276,0-0.5,0.224-0.5,0.5s0.224,0.5,0.5,0.5s0.5-0.224,0.5-0.5S28.776,73,28.5,73z" />
  <path fill="#472b29" d="M37,74h-3.5c-0.276,0-0.5-0.224-0.5-0.5s0.224-0.5,0.5-0.5H37c1.654,0,3-1.346,3-3 c0-1.496-1.125-2.768-2.618-2.959c-0.134-0.018-0.255-0.088-0.336-0.196s-0.115-0.244-0.094-0.377C36.975,66.314,37,66.16,37,66 c0-1.654-1.346-3-3-3c-0.85,0-1.638,0.355-2.219,1c-0.125,0.139-0.321,0.198-0.5,0.148c-0.182-0.049-0.321-0.195-0.36-0.379 C30.58,62.165,29.141,61,27.5,61c-1.93,0-3.5,1.57-3.5,3.5c0,0.143,0.021,0.28,0.041,0.418c0.029,0.203-0.063,0.438-0.242,0.54 s-0.396,0.118-0.556-0.01C22.878,65.155,22.449,65,22,65c-0.966,0-1.792,0.691-1.963,1.644c-0.048,0.267-0.296,0.446-0.569,0.405 C19.314,67.025,19.16,67,19,67c-1.654,0-3,1.346-3,3s1.346,3,3,3h7.5c0.276,0,0.5,0.224,0.5,0.5S26.776,74,26.5,74H19 c-2.206,0-4-1.794-4-4s1.794-4,4-4c0.059,0,0.116,0.002,0.174,0.006C19.588,64.82,20.711,64,22,64c0.349,0,0.689,0.061,1.011,0.18 C23.176,61.847,25.126,60,27.5,60c1.831,0,3.466,1.127,4.153,2.774C32.333,62.276,33.155,62,34,62c2.206,0,4,1.794,4,4 c0,0.048-0.001,0.095-0.004,0.142C39.739,66.59,41,68.169,41,70C41,72.206,39.206,74,37,74z" />
  <path fill="#472b29" d="M31.5,73c-0.159,0-0.841,0-1,0c-0.276,0-0.5,0.224-0.5,0.5s0.224,0.5,0.5,0.5c0.159,0,0.841,0,1,0 c0.276,0,0.5-0.224,0.5-0.5S31.776,73,31.5,73z" />
  <path fill="#472b29" d="M36.267,49.552c-0.112,0-0.224-0.037-0.317-0.114c-2.707-2.228-4.259-5.514-4.259-9.017 c0-6.436,5.236-11.672,11.672-11.672c4.572,0,8.747,2.691,10.636,6.856c0.114,0.251,0.002,0.548-0.249,0.662 c-0.252,0.114-0.548,0.002-0.662-0.249c-1.727-3.809-5.544-6.27-9.725-6.27c-5.884,0-10.672,4.788-10.672,10.672 c0,3.203,1.419,6.208,3.895,8.244c0.213,0.176,0.244,0.491,0.068,0.704C36.554,49.49,36.411,49.552,36.267,49.552z" />
  <path fill="#472b29" d="M43.362,27.129c-0.276,0-0.5-0.224-0.5-0.5v-3.975c0-0.276,0.224-0.5,0.5-0.5s0.5,0.224,0.5,0.5 v3.975C43.862,26.906,43.638,27.129,43.362,27.129z" />
  <path fill="#472b29" d="M48.952,34.147c-0.056,0-0.113-0.019-0.159-0.057c-0.187-0.154-0.38-0.301-0.579-0.438 c-0.113-0.079-0.142-0.235-0.063-0.348c0.079-0.114,0.234-0.141,0.348-0.063c0.21,0.146,0.415,0.301,0.612,0.464 c0.106,0.088,0.122,0.246,0.034,0.352C49.095,34.116,49.024,34.147,48.952,34.147z" />
  <path fill="#472b29" d="M36.451,35.35c-0.056,0-0.112-0.019-0.159-0.057c-0.106-0.088-0.122-0.246-0.034-0.352 c1.743-2.111,4.311-3.322,7.045-3.322c1.512,0,3.011,0.377,4.333,1.092c0.122,0.065,0.167,0.217,0.101,0.338 c-0.065,0.123-0.218,0.166-0.338,0.102c-1.25-0.675-2.667-1.032-4.096-1.032c-2.585,0-5.013,1.145-6.66,3.141 C36.595,35.32,36.523,35.35,36.451,35.35z" />
  <path fill="#472b29" d="M55.655,39.422c0-0.276,0.224-0.5,0.5-0.5h3.975c0.276,0,0.5,0.224,0.5,0.5s-0.224,0.5-0.5,0.5 h-3.975C55.878,39.922,55.655,39.698,55.655,39.422z" />
  <path fill="#472b29" d="M25.094,40.422c0-0.276,0.224-0.5,0.5-0.5h3.975c0.276,0,0.5,0.224,0.5,0.5s-0.224,0.5-0.5,0.5 h-3.975C25.317,40.922,25.094,40.698,25.094,40.422z" />
  <path fill="#472b29" d="M51.762,48.822c0.195-0.195,0.512-0.195,0.707,0l2.811,2.811c0.195,0.195,0.195,0.512,0,0.707 c-0.195,0.195-0.512,0.195-0.707,0l-2.811-2.811C51.566,49.333,51.566,49.017,51.762,48.822z" />
  <path fill="#472b29" d="M51.762,48.822c0.195-0.195,0.512-0.195,0.707,0l2.811,2.811c0.195,0.195,0.195,0.512,0,0.707 c-0.195,0.195-0.512,0.195-0.707,0l-2.811-2.811C51.566,49.333,51.566,49.017,51.762,48.822z" />
  <path fill="#472b29" d="M30.445,27.505c0.195-0.195,0.512-0.195,0.707,0l2.811,2.811c0.195,0.195,0.195,0.512,0,0.707 c-0.195,0.195-0.512,0.195-0.707,0l-2.811-2.811C30.249,28.016,30.249,27.7,30.445,27.505z" />
  <path fill="#472b29" d="M33.962,49.822c0.195,0.195,0.195,0.512,0,0.707l-2.811,2.811c-0.195,0.195-0.512,0.195-0.707,0 c-0.195-0.195-0.195-0.512,0-0.707l2.811-2.811C33.451,49.626,33.767,49.626,33.962,49.822z" />
  <path fill="#472b29" d="M56.279,27.505c0.195,0.195,0.195,0.512,0,0.707l-2.811,2.811c-0.195,0.195-0.512,0.195-0.707,0 c-0.195-0.195-0.195-0.512,0-0.707l2.811-2.811C55.768,27.309,56.084,27.309,56.279,27.505z" />
  <path fill="#9f8066" d="M55.951,74.207c0-3.498-4.672-3.489-4.672-3.489s-0.005-4.672-3.489-4.672 c-0.934-0.079-1.834,0.371-2.332,1.166c4.663,0,3.479,5.835,3.479,5.835s5.848-1.193,5.848,3.492 C55.574,76.036,56.022,75.14,55.951,74.207z" />
  <path fill="#472b29" d="M54.785,77.039c-0.083,0-0.166-0.021-0.24-0.062c-0.16-0.088-0.26-0.256-0.26-0.438 c0-1.047-0.31-1.809-0.946-2.33c-1.494-1.222-4.275-0.678-4.302-0.671c-0.164,0.032-0.334-0.018-0.453-0.137 c-0.119-0.118-0.17-0.288-0.137-0.453c0.006-0.028,0.546-2.807-0.673-4.295c-0.519-0.633-1.276-0.94-2.315-0.94 c-0.182,0-0.349-0.099-0.438-0.258c-0.088-0.159-0.083-0.354,0.014-0.507c0.6-0.958,1.672-1.499,2.798-1.399 c0.001,0,0.002,0,0.002,0c2.849,0,3.788,2.843,3.926,4.694c0.84,0.071,2.581,0.353,3.692,1.462 c0.658,0.657,0.994,1.493,0.998,2.484c0.078,1.112-0.457,2.172-1.397,2.772C54.972,77.013,54.879,77.039,54.785,77.039z M55.285,76.539h0.01H55.285z M50.481,72.411c1.08,0,2.473,0.193,3.489,1.022c0.619,0.506,1.021,1.179,1.204,2.008 c0.21-0.354,0.312-0.769,0.279-1.195c-0.001-0.013-0.001-0.025-0.001-0.038c0-2.952-4.001-2.989-4.171-2.989 c-0.275,0-0.5-0.224-0.5-0.499c0-0.17-0.049-4.173-2.989-4.173c-0.454-0.035-0.882,0.063-1.241,0.277 c0.826,0.181,1.497,0.582,2,1.198c1.106,1.353,1.081,3.383,0.975,4.438C49.791,72.432,50.118,72.411,50.481,72.411z M56.451,74.207 h0.01H56.451z" />
  <path fill="#9f8066" d="M84.068,32.771c-3.2-1.413-5.079,2.865-5.079,2.865s-4.276-1.882-5.683,1.305 c-0.449,0.823-0.401,1.828,0.125,2.604c1.883-4.266,6.743-0.826,6.743-0.826s1.27-5.832,5.556-3.94 C85.589,33.854,84.95,33.082,84.068,32.771z" />
  <path fill="#472b29" d="M73.431,40.045c-0.165,0-0.32-0.082-0.414-0.22c-0.634-0.936-0.691-2.133-0.15-3.125 c1.15-2.608,4.13-2.32,5.881-1.698c0.404-0.74,1.365-2.219,2.829-2.788c0.867-0.337,1.767-0.306,2.675,0.09 c1.049,0.378,1.803,1.295,1.972,2.397c0.028,0.181-0.045,0.362-0.19,0.473c-0.146,0.11-0.341,0.134-0.506,0.061 c-0.958-0.423-1.78-0.447-2.514-0.075c-1.72,0.872-2.346,3.637-2.353,3.665c-0.036,0.164-0.151,0.298-0.308,0.359 c-0.157,0.061-0.332,0.039-0.469-0.058c-0.023-0.016-2.346-1.633-4.202-1.118c-0.788,0.219-1.375,0.788-1.795,1.739 c-0.074,0.166-0.231,0.28-0.413,0.296C73.461,40.045,73.446,40.045,73.431,40.045z M76.376,35.575c-1.009,0-2.071,0.34-2.613,1.568 c-0.217,0.4-0.298,0.833-0.248,1.247c0.499-0.682,1.137-1.133,1.904-1.346c1.687-0.464,3.531,0.378,4.453,0.9 c0.329-1.009,1.125-2.879,2.686-3.673c0.712-0.363,1.492-0.459,2.323-0.291c-0.239-0.335-0.578-0.596-0.98-0.739 c-0.012-0.004-0.024-0.009-0.036-0.014c-0.671-0.297-1.3-0.322-1.926-0.081c-1.563,0.607-2.483,2.668-2.492,2.689 c-0.111,0.252-0.408,0.368-0.659,0.257C78.704,36.057,77.578,35.575,76.376,35.575z" />
  <g>
    <path fill="#78cdd4" d="M43.88,57.131c-3.051,0-5.533-2.462-5.533-5.488c0-3.027,2.482-5.489,5.533-5.489l0.602,0.017 l0.196-0.588c0.502-2.807,2.952-4.844,5.826-4.844c0.481,0,0.979,0.064,1.477,0.192l0.499,0.129l0.271-0.439 c1.446-2.349,3.956-3.75,6.715-3.75c3.831,0,7.089,2.718,7.745,6.463l0.088,0.502l0.505,0.07c3.288,0.458,5.767,3.285,5.767,6.576 c0,3.534-2.788,6.447-6.349,6.631l-0.36,0.018H43.88z" />
    <path fill="#472b29" d="M43.88,57.63c-3.327,0-6.033-2.686-6.033-5.988c0-3.302,2.707-5.989,6.033-5.989l0.245,0.007 l0.078-0.236c0.616-3.478,4.177-5.936,7.902-4.978l0.143,0.037l0.078-0.125c1.537-2.497,4.207-3.987,7.141-3.987 c4.075,0,7.54,2.892,8.238,6.876l0.025,0.143l0.144,0.02c3.534,0.492,6.199,3.532,6.199,7.071c0,3.801-2.997,6.933-6.823,7.13 l-0.361,0.018L43.88,57.63z M43.866,46.653c-2.761,0-5.019,2.238-5.019,4.989c0,2.75,2.258,4.988,5.033,4.988l23.317-0.018 c3.293-0.169,5.874-2.863,5.874-6.131c0-3.043-2.294-5.657-5.336-6.081l-0.866-0.12l-0.151-0.861 c-0.614-3.505-3.664-6.049-7.252-6.049c-2.584,0-4.936,1.313-6.29,3.512l-0.465,0.753l-0.856-0.221 c-3.173-0.815-6.149,1.257-6.686,4.256l-0.331,1.01L43.866,46.653z" />
  </g>
  <g>
    <path fill="#472b29" d="M63.88,45.489c-0.008,0-0.017,0-0.025-0.001c-0.137-0.013-0.237-0.136-0.224-0.273 c0.082-0.824-0.049-1.628-0.378-2.325c-0.059-0.125-0.005-0.274,0.119-0.333c0.125-0.057,0.274-0.006,0.333,0.119 c0.368,0.779,0.514,1.673,0.423,2.588C64.116,45.393,64.007,45.489,63.88,45.489z" />
  </g>
  <g>
    <path fill="#472b29" d="M62.23,41.524c-0.068,0-0.136-0.028-0.185-0.082c-0.735-0.811-1.799-1.292-2.999-1.354 c-0.138-0.007-0.244-0.125-0.237-0.262c0.007-0.138,0.104-0.247,0.262-0.237c1.333,0.069,2.52,0.607,3.343,1.517 c0.093,0.103,0.085,0.261-0.017,0.353C62.351,41.503,62.291,41.524,62.23,41.524z" />
  </g>
  <g>
    <path fill="#fdfcef" d="M76.77,65v0.5h3V65c0,0,4.242,0,5.5,0c2.485,0,4.5-2.015,4.5-4.5c0-2.333-1.782-4.229-4.055-4.455 c0.022-0.181,0.055-0.358,0.055-0.545c0-2.485-2.015-4.5-4.5-4.5c-1.438,0-2.703,0.686-3.527,1.736 C77.603,50.1,75.441,48,72.77,48c-2.761,0-5,2.239-5,5c0,0.446,0.077,0.87,0.187,1.282C67.315,53.505,66.356,53,65.27,53 c-1.781,0-3.234,1.335-3.455,3.055C61.634,56.033,61.457,56,61.27,56c-2.485,0-4.5,2.015-4.5,4.5s2.015,4.5,4.5,4.5s9.5,0,9.5,0 H76.77z" />
    <path fill="#472b29" d="M72.77,47.5c-3.033,0-5.5,2.467-5.5,5.5c0,0.016,0,0.031,0,0.047c-0.602-0.355-1.29-0.547-2-0.547 c-1.831,0-3.411,1.261-3.858,3.005c-0.047-0.003-0.094-0.005-0.142-0.005c-2.757,0-5,2.243-5,5s2.243,5,5,5h15.5 c0.276,0,0.5-0.224,0.5-0.5s-0.224-0.5-0.5-0.5h-15.5c-2.206,0-4-1.794-4-4s1.794-4,4-4c0.117,0,0.23,0.017,0.343,0.032 l0.141,0.019c0.021,0.003,0.041,0.004,0.062,0.004c0.246,0,0.462-0.185,0.495-0.437c0.191-1.493,1.463-2.618,2.959-2.618 c0.885,0,1.723,0.401,2.301,1.1c0.098,0.118,0.241,0.182,0.386,0.182c0.078,0,0.156-0.018,0.228-0.056 c0.209-0.107,0.314-0.346,0.254-0.573C68.324,53.718,68.27,53.352,68.27,53c0-2.481,2.019-4.5,4.5-4.5 c2.381,0,4.347,1.872,4.474,4.263c0.011,0.208,0.15,0.387,0.349,0.45c0.05,0.016,0.101,0.024,0.152,0.024 c0.15,0,0.296-0.069,0.392-0.192c0.771-0.982,1.912-1.545,3.133-1.545c2.206,0,4,1.794,4,4c0,0.117-0.017,0.23-0.032,0.343 l-0.019,0.141c-0.016,0.134,0.022,0.268,0.106,0.373s0.207,0.172,0.34,0.185c2.056,0.205,3.605,1.907,3.605,3.958 c0,2.206-1.794,4-4,4h-5.5c-0.276,0-0.5,0.224-0.5,0.5s0.224,0.5,0.5,0.5h5.5c2.757,0,5-2.243,5-5 c0-2.397-1.689-4.413-4.003-4.877c0.002-0.041,0.003-0.082,0.003-0.123c0-2.757-2.243-5-5-5c-1.176,0-2.293,0.416-3.183,1.164 C77.489,49.26,75.325,47.5,72.77,47.5L72.77,47.5z" />
    <path fill="#472b29" d="M71.27,54.5c-1.403,0-2.609,0.999-2.913,2.341c-0.367-0.222-0.786-0.341-1.212-0.341 c-1.202,0-2.198,0.897-2.353,2.068c-0.203-0.046-0.396-0.068-0.584-0.068c-1.529,0-2.811,1.2-2.918,2.732 c-0.01,0.138,0.094,0.258,0.231,0.268c0.006,0,0.012,0,0.018,0c0.13,0,0.24-0.101,0.249-0.232C61.877,59.997,62.939,59,64.207,59 c0.229,0,0.47,0.042,0.738,0.127c0.022,0.007,0.045,0.01,0.067,0.01c0.055,0,0.11-0.02,0.156-0.054 c0.064-0.046,0.102-0.128,0.102-0.208c0-1.034,0.841-1.875,1.875-1.875c0.447,0,0.885,0.168,1.231,0.473 c0.047,0.041,0.106,0.063,0.165,0.063c0.032,0,0.063-0.006,0.093-0.019c0.088-0.035,0.148-0.117,0.155-0.212 C68.893,56.012,69.982,55,71.27,55c0.208,0,0.425,0.034,0.682,0.107c0.023,0.007,0.047,0.01,0.07,0.01 c0.109,0,0.207-0.073,0.239-0.182c0.038-0.133-0.039-0.271-0.172-0.309C71.787,54.54,71.526,54.5,71.27,54.5L71.27,54.5z M85.153,56c-1.326,0-2.508,0.897-2.874,2.182c-0.038,0.133,0.039,0.271,0.172,0.309c0.024,0.006,0.047,0.009,0.069,0.009 c0.109,0,0.209-0.072,0.24-0.182c0.305-1.07,1.289-1.818,2.393-1.818c0.117,0,0.23,0.014,0.342,0.029 c0.012,0.002,0.023,0.003,0.035,0.003c0.121,0,0.229-0.092,0.246-0.217c0.019-0.137-0.077-0.263-0.214-0.281 C85.428,56.016,85.292,56,85.153,56L85.153,56z" />
  </g>
  <g>
    <path fill="#472b29" d="M41,52.011c-0.138,0-0.25-0.112-0.25-0.25c0-1.824,1.484-3.309,3.309-3.309 c0.188,0,0.376,0.016,0.558,0.047c0.136,0.023,0.228,0.153,0.204,0.289c-0.023,0.136-0.151,0.228-0.289,0.204 c-0.154-0.027-0.313-0.04-0.473-0.04c-1.549,0-2.809,1.26-2.809,2.809C41.25,51.899,41.138,52.011,41,52.011z" />
  </g>
</svg>